<?xml version="1.0" encoding="iso-8859-1"?>
<!-- Generator: Adobe Illustrator 19.0.0, SVG Export Plug-In . SVG Version: 6.00 Build 0)  -->
<svg version="1.1" id="Layer_1" xmlns="http://www.w3.org/2000/svg" xmlns:xlink="http://www.w3.org/1999/xlink" x="0px" y="0px"
	 viewBox="0 0 488 488" style="enable-background:new 0 0 488 488;" xml:space="preserve">
<path style="opacity:0.2;fill:#B2B2B2;enable-background:new    ;" d="M352.8,240.8c22.4-17.6,36.8-45.6,36.8-76v-3.2
	c0-3.2,0-6.4-0.8-10.4c0-0.8,0-1.6,0-2.4c0-2.4-0.8-4.8-0.8-7.2c0-0.8-0.8-1.6-0.8-2.4c-0.8-2.4-0.8-4.8-1.6-7.2
	c0-0.8-0.8-1.6-0.8-2.4c-0.8-2.4-1.6-4.8-3.2-7.2c0-0.8-0.8-0.8-0.8-1.6c-0.8-2.4-2.4-4.8-4-7.2c0,0,0-0.8-0.8-0.8
	c-1.6-2.4-3.2-4.8-4.8-7.2l0,0c-16.8-23.2-44-39.2-75.2-40.8V21.6c0-12-9.6-21.6-21.6-21.6s-21.6,9.6-21.6,21.6v43.2h-20V21.6
	c0-12-9.6-21.6-21.6-21.6s-21.6,9.6-21.6,21.6v43.2h-52.8c-12,0-21.6,9.6-21.6,21.6s9.6,21.6,21.6,21.6h53.6v0.8
	c-0.8,2.4-1.6,4.8-1.6,7.2v143.2v115.2H136c-12,0-21.6,9.6-21.6,21.6s9.6,21.6,21.6,21.6h52.8v48.8c0,12,9.6,21.6,21.6,21.6
	s21.6-9.6,21.6-21.6v-48.8h20.8v48.8c0,12,9.6,21.6,21.6,21.6s21.6-9.6,21.6-21.6v-49.6c52-1.6,93.6-44.8,93.6-96.8v-3.2
	C389.6,286.4,375.2,258.4,352.8,240.8z M346.4,320c0,29.6-24,53.6-53.6,53.6h-59.2V216V116c0-2.4-0.8-4.8-1.6-7.2V108h60.8
	c13.6,0,26.4,4.8,35.2,13.6l0,0c8,7.2,14.4,16.8,16.8,28c0,0,0,0,0,0.8c0,1.6,0.8,3.2,0.8,4.8v0.8c0,1.6,0,4,0,5.6v3.2
	c0,29.6-24,53.6-53.6,53.6c-12,0-21.6,9.6-21.6,21.6v0.8v0.8c0,12,9.6,21.6,21.6,21.6c29.6,0,53.6,24,53.6,53.6v3.2H346.4z"/>
<path style="fill:#FFA300;" d="M336.8,240.8c22.4-17.6,36.8-45.6,36.8-76v-3.2c0-52-41.6-95.2-93.6-96.8V21.6
	c0-12-9.6-21.6-21.6-21.6c-12,0-21.6,9.6-21.6,21.6v43.2h-20V21.6c0-12-9.6-21.6-21.6-21.6s-21.6,9.6-21.6,21.6v43.2h-52.8
	c-12,0-21.6,9.6-21.6,21.6s9.6,21.6,21.6,21.6h53.6v0.8c-0.8,2.4-1.6,4.8-1.6,7.2v258.4H120c-12,0-21.6,9.6-21.6,21.6
	s9.6,21.6,21.6,21.6h52.8v48.8c0,12,9.6,21.6,21.6,21.6s21.6-9.6,21.6-21.6v-48.8h20.8v48.8c0,12,9.6,21.6,21.6,21.6
	c12,0,21.6-9.6,21.6-21.6v-49.6c52-1.6,93.6-44.8,93.6-96.8v-3.2C373.6,286.4,359.2,258.4,336.8,240.8z M330.4,320
	c0,29.6-24,53.6-53.6,53.6h-59.2V116c0-2.4-0.8-4.8-1.6-7.2V108h60.8c29.6,0,53.6,24,53.6,53.6v3.2c0,29.6-24,53.6-53.6,53.6
	c-12,0-21.6,9.6-21.6,21.6v0.8v0.8c0,12,9.6,21.6,21.6,21.6c29.6,0,53.6,24,53.6,53.6V320z"/>
<path style="fill:#FF7300;" d="M330.4,161.6v3.2c0,29.6-24,53.6-53.6,53.6c-12,0-21.6,9.6-21.6,21.6v0.8v0.8
	c0,12,9.6,21.6,21.6,21.6c29.6,0,53.6,24,53.6,53.6v3.2c0,29.6-24,53.6-53.6,53.6h-59.2V216l-43.2,43.2v115.2h-52.8
	c-12,0-21.6,9.6-21.6,21.6s9.6,21.6,21.6,21.6h52.8v48.8c0,12,9.6,21.6,21.6,21.6s21.6-9.6,21.6-21.6v-48.8h19.2v48.8
	c0,12,9.6,21.6,21.6,21.6c12,0,21.6-9.6,21.6-21.6v-49.6c52-1.6,93.6-44.8,93.6-96.8v-3.2c0-31.2-14.4-58.4-36.8-76
	c22.4-17.6,36.8-45.6,36.8-76v-3.2c0-28-12-52.8-31.2-70.4L312,121.6C323.2,131.2,330.4,145.6,330.4,161.6z"/>
<g>
</g>
<g>
</g>
<g>
</g>
<g>
</g>
<g>
</g>
<g>
</g>
<g>
</g>
<g>
</g>
<g>
</g>
<g>
</g>
<g>
</g>
<g>
</g>
<g>
</g>
<g>
</g>
<g>
</g>
</svg>
